<svg xmlns="http://www.w3.org/2000/svg" width="720" height="330" viewBox="0 0 720 330" font-family="system-ui, -apple-system, 'Segoe UI', sans-serif">
  <style>
    .ink{fill:#0b0b0b} .ink2{fill:#52514e}
    .box{fill:#f0efec;stroke:#8a8984;stroke-width:1.5}
    .focus{fill:#2a78d6} .focus-s{stroke:#2a78d6;fill:none;stroke-width:1.5}
    .lost{fill:#eb6834} .lost-s{stroke:#eb6834;fill:none;stroke-width:3}
    .safe-box{fill:#1baf7a;fill-opacity:.18;stroke:#1baf7a;stroke-width:1.5}
    .focus-box{fill:#2a78d6;fill-opacity:.14;stroke:#2a78d6;stroke-width:1.5}
    .lost-box{fill:#eb6834;fill-opacity:.18;stroke:#eb6834;stroke-width:1.5}
    .safe-s{stroke:#1baf7a;fill:none;stroke-width:3}
    .old{fill:#b8b7b2}
    .old-box{fill:none;stroke:#b8b7b2;stroke-width:1.5;stroke-dasharray:4 3}
    .line{stroke:#8a8984;stroke-width:1.5;fill:none}
    .arrowhead{fill:#8a8984}
    .t{font-size:14px} .n{font-size:12px} .mono{font-family:ui-monospace,'SF Mono',Menlo,monospace}
    .b{font-weight:600}
    @media (prefers-color-scheme: dark){
      .ink{fill:#ffffff} .ink2{fill:#c3c2b7}
      .box{fill:#2a2a28;stroke:#8a8984}
      .focus{fill:#3987e5} .focus-s{stroke:#3987e5}
      .lost{fill:#d95926} .lost-s{stroke:#d95926}
      .safe-box{fill:#199e70;stroke:#199e70}
      .focus-box{fill:#3987e5;stroke:#3987e5}
      .lost-box{fill:#d95926;stroke:#d95926}
      .safe-s{stroke:#199e70}
      .old{fill:#5c5b57} .old-box{stroke:#5c5b57}
    }
  </style>
  <defs>
    <marker id="arrow" viewBox="0 0 10 10" refX="9" refY="5" markerWidth="7" markerHeight="7" orient="auto-start-reverse">
      <path d="M0,0 L10,5 L0,10 z" class="arrowhead"/>
    </marker>
  </defs>

<text x="200" y="22" text-anchor="middle" class="ink t b">Across the fleet: a few machines at a time</text>
<text x="62" y="56" text-anchor="end" class="ink2 n">host 1</text>
<text x="62" y="80" text-anchor="end" class="ink2 n">host 2</text>
<text x="62" y="104" text-anchor="end" class="ink2 n">host 3</text>
<text x="62" y="128" text-anchor="end" class="ink2 n">host 4</text>
<text x="62" y="152" text-anchor="end" class="ink2 n">host 5</text>
<text x="62" y="176" text-anchor="end" class="ink2 n">host 6</text>
<text x="62" y="200" text-anchor="end" class="ink2 n">host 7</text>
<text x="62" y="224" text-anchor="end" class="ink2 n">host 8</text>
<rect x="72" y="42" width="20" height="20" rx="3" class="box"/>
<rect x="96" y="42" width="20" height="20" rx="3" class="box"/>
<rect x="120" y="42" width="20" height="20" rx="3" class="focus"/>
<rect x="144" y="42" width="20" height="20" rx="3" class="box"/>
<rect x="168" y="42" width="20" height="20" rx="3" class="focus"/>
<rect x="192" y="42" width="20" height="20" rx="3" class="focus"/>
<rect x="216" y="42" width="20" height="20" rx="3" class="box"/>
<rect x="240" y="42" width="20" height="20" rx="3" class="focus"/>
<rect x="264" y="42" width="20" height="20" rx="3" class="focus"/>
<rect x="288" y="42" width="20" height="20" rx="3" class="focus"/>
<rect x="312" y="42" width="20" height="20" rx="3" class="box"/>
<rect x="336" y="42" width="20" height="20" rx="3" class="focus"/>
<rect x="72" y="66" width="20" height="20" rx="3" class="focus"/>
<rect x="96" y="66" width="20" height="20" rx="3" class="box"/>
<rect x="120" y="66" width="20" height="20" rx="3" class="box"/>
<rect x="144" y="66" width="20" height="20" rx="3" class="focus"/>
<rect x="168" y="66" width="20" height="20" rx="3" class="box"/>
<rect x="192" y="66" width="20" height="20" rx="3" class="box"/>
<rect x="216" y="66" width="20" height="20" rx="3" class="focus"/>
<rect x="240" y="66" width="20" height="20" rx="3" class="box"/>
<rect x="264" y="66" width="20" height="20" rx="3" class="box"/>
<rect x="288" y="66" width="20" height="20" rx="3" class="box"/>
<rect x="312" y="66" width="20" height="20" rx="3" class="focus"/>
<rect x="336" y="66" width="20" height="20" rx="3" class="box"/>
<rect x="72" y="90" width="20" height="20" rx="3" class="box"/>
<rect x="96" y="90" width="20" height="20" rx="3" class="box"/>
<rect x="120" y="90" width="20" height="20" rx="3" class="box"/>
<rect x="144" y="90" width="20" height="20" rx="3" class="focus"/>
<rect x="168" y="90" width="20" height="20" rx="3" class="box"/>
<rect x="192" y="90" width="20" height="20" rx="3" class="box"/>
<rect x="216" y="90" width="20" height="20" rx="3" class="box"/>
<rect x="240" y="90" width="20" height="20" rx="3" class="box"/>
<rect x="264" y="90" width="20" height="20" rx="3" class="box"/>
<rect x="288" y="90" width="20" height="20" rx="3" class="box"/>
<rect x="312" y="90" width="20" height="20" rx="3" class="box"/>
<rect x="336" y="90" width="20" height="20" rx="3" class="box"/>
<rect x="72" y="114" width="20" height="20" rx="3" class="box"/>
<rect x="96" y="114" width="20" height="20" rx="3" class="box"/>
<rect x="120" y="114" width="20" height="20" rx="3" class="box"/>
<rect x="144" y="114" width="20" height="20" rx="3" class="box"/>
<rect x="168" y="114" width="20" height="20" rx="3" class="box"/>
<rect x="192" y="114" width="20" height="20" rx="3" class="focus"/>
<rect x="216" y="114" width="20" height="20" rx="3" class="focus"/>
<rect x="240" y="114" width="20" height="20" rx="3" class="box"/>
<rect x="264" y="114" width="20" height="20" rx="3" class="focus"/>
<rect x="288" y="114" width="20" height="20" rx="3" class="box"/>
<rect x="312" y="114" width="20" height="20" rx="3" class="box"/>
<rect x="336" y="114" width="20" height="20" rx="3" class="box"/>
<rect x="72" y="138" width="20" height="20" rx="3" class="box"/>
<rect x="96" y="138" width="20" height="20" rx="3" class="box"/>
<rect x="120" y="138" width="20" height="20" rx="3" class="box"/>
<rect x="144" y="138" width="20" height="20" rx="3" class="box"/>
<rect x="168" y="138" width="20" height="20" rx="3" class="focus"/>
<rect x="192" y="138" width="20" height="20" rx="3" class="box"/>
<rect x="216" y="138" width="20" height="20" rx="3" class="box"/>
<rect x="240" y="138" width="20" height="20" rx="3" class="box"/>
<rect x="264" y="138" width="20" height="20" rx="3" class="box"/>
<rect x="288" y="138" width="20" height="20" rx="3" class="box"/>
<rect x="312" y="138" width="20" height="20" rx="3" class="box"/>
<rect x="336" y="138" width="20" height="20" rx="3" class="focus"/>
<rect x="72" y="162" width="20" height="20" rx="3" class="focus"/>
<rect x="96" y="162" width="20" height="20" rx="3" class="focus"/>
<rect x="120" y="162" width="20" height="20" rx="3" class="box"/>
<rect x="144" y="162" width="20" height="20" rx="3" class="box"/>
<rect x="168" y="162" width="20" height="20" rx="3" class="box"/>
<rect x="192" y="162" width="20" height="20" rx="3" class="box"/>
<rect x="216" y="162" width="20" height="20" rx="3" class="box"/>
<rect x="240" y="162" width="20" height="20" rx="3" class="box"/>
<rect x="264" y="162" width="20" height="20" rx="3" class="box"/>
<rect x="288" y="162" width="20" height="20" rx="3" class="box"/>
<rect x="312" y="162" width="20" height="20" rx="3" class="box"/>
<rect x="336" y="162" width="20" height="20" rx="3" class="box"/>
<rect x="72" y="186" width="20" height="20" rx="3" class="box"/>
<rect x="96" y="186" width="20" height="20" rx="3" class="focus"/>
<rect x="120" y="186" width="20" height="20" rx="3" class="box"/>
<rect x="144" y="186" width="20" height="20" rx="3" class="box"/>
<rect x="168" y="186" width="20" height="20" rx="3" class="box"/>
<rect x="192" y="186" width="20" height="20" rx="3" class="box"/>
<rect x="216" y="186" width="20" height="20" rx="3" class="box"/>
<rect x="240" y="186" width="20" height="20" rx="3" class="focus"/>
<rect x="264" y="186" width="20" height="20" rx="3" class="box"/>
<rect x="288" y="186" width="20" height="20" rx="3" class="focus"/>
<rect x="312" y="186" width="20" height="20" rx="3" class="box"/>
<rect x="336" y="186" width="20" height="20" rx="3" class="box"/>
<rect x="72" y="210" width="20" height="20" rx="3" class="box"/>
<rect x="96" y="210" width="20" height="20" rx="3" class="box"/>
<rect x="120" y="210" width="20" height="20" rx="3" class="focus"/>
<rect x="144" y="210" width="20" height="20" rx="3" class="box"/>
<rect x="168" y="210" width="20" height="20" rx="3" class="box"/>
<rect x="192" y="210" width="20" height="20" rx="3" class="box"/>
<rect x="216" y="210" width="20" height="20" rx="3" class="box"/>
<rect x="240" y="210" width="20" height="20" rx="3" class="box"/>
<rect x="264" y="210" width="20" height="20" rx="3" class="box"/>
<rect x="288" y="210" width="20" height="20" rx="3" class="box"/>
<rect x="312" y="210" width="20" height="20" rx="3" class="focus"/>
<rect x="336" y="210" width="20" height="20" rx="3" class="box"/>
<line x1="70" y1="242" x2="358" y2="242" class="line" marker-end="url(#arrow)"/>
<text x="214.0" y="260" text-anchor="middle" class="ink2 n">time, in profiling rounds of a few minutes each</text>
<rect x="70" y="274" width="14" height="14" rx="3" class="focus"/><text x="92" y="286" class="ink n">being profiled this round (picked at random)</text>
<rect x="70" y="296" width="14" height="14" rx="3" class="box"/><text x="92" y="308" class="ink n">not profiled: no cost at all</text>
<text x="560" y="22" text-anchor="middle" class="ink t b">Inside one profiled machine</text>
<rect x="420" y="40" width="280" height="44" rx="6" class="box"/>
<text x="432" y="67" class="ink t">program running on the CPU</text>
<line x1="434" y1="92" x2="434" y2="108" class="focus-s" stroke-width="2"/>
<line x1="453" y1="92" x2="453" y2="108" class="focus-s" stroke-width="2"/>
<line x1="472" y1="92" x2="472" y2="108" class="focus-s" stroke-width="2"/>
<line x1="491" y1="92" x2="491" y2="108" class="focus-s" stroke-width="2"/>
<line x1="510" y1="92" x2="510" y2="108" class="focus-s" stroke-width="2"/>
<line x1="529" y1="92" x2="529" y2="108" class="focus-s" stroke-width="2"/>
<line x1="548" y1="92" x2="548" y2="108" class="focus-s" stroke-width="2"/>
<line x1="567" y1="92" x2="567" y2="108" class="focus-s" stroke-width="2"/>
<line x1="586" y1="92" x2="586" y2="108" class="focus-s" stroke-width="2"/>
<line x1="605" y1="92" x2="605" y2="108" class="focus-s" stroke-width="2"/>
<line x1="624" y1="92" x2="624" y2="108" class="focus-s" stroke-width="2"/>
<line x1="643" y1="92" x2="643" y2="108" class="focus-s" stroke-width="2"/>
<line x1="662" y1="92" x2="662" y2="108" class="focus-s" stroke-width="2"/>
<line x1="681" y1="92" x2="681" y2="108" class="focus-s" stroke-width="2"/>
<text x="420" y="126" class="ink n">every Nth event or timer tick: record a stack</text>
<text x="420" y="142" class="ink2 n">rate capped so this machine pays at most a few %</text>
<line x1="560" y1="152" x2="560" y2="178" class="line" marker-end="url(#arrow)"/>
<rect x="420" y="182" width="280" height="44" rx="6" class="box"/>
<text x="560" y="200" text-anchor="middle" class="ink n">raw stacks + tags (job, machine, datacenter)</text>
<text x="560" y="216" text-anchor="middle" class="ink2 n">symbolized later, somewhere else</text>
<line x1="560" y1="228" x2="560" y2="254" class="line" marker-end="url(#arrow)"/>
<rect x="420" y="258" width="280" height="44" rx="6" class="safe-box"/>
<text x="560" y="276" text-anchor="middle" class="ink n">profile store, queryable over time</text>
<text x="560" y="292" text-anchor="middle" class="ink2 n">fleet-wide cost: under 0.01% (GWP)</text>
</svg>